<?xml version="1.0" encoding="utf-8"?>
<!-- Generator: Adobe Illustrator 14.0.0, SVG Export Plug-In . SVG Version: 6.00 Build 43363)  -->
<!DOCTYPE svg PUBLIC "-//W3C//DTD SVG 1.1//EN" "http://www.w3.org/Graphics/SVG/1.1/DTD/svg11.dtd">
<svg version="1.1" xmlns="http://www.w3.org/2000/svg" xmlns:xlink="http://www.w3.org/1999/xlink" x="0px" y="0px" width="76.5px"
	 height="49.5px" viewBox="0 0 76.5 49.5" enable-background="new 0 0 76.5 49.5" xml:space="preserve">
<g id="Layer_2">
	<ellipse fill="#1CD600" cx="60.089" cy="20.971" rx="14.756" ry="5.029"/>
</g>
<g id="Layer_3">
	<path fill="#1CD600" d="M45.444,21.528l3.4,22.463c0,0,10.203,9.675,22.49,0.111l3.401-23.131L45.444,21.528z"/>
</g>
<g id="Layer_5">
	<ellipse fill="#1C7B00" cx="60.144" cy="22.188" rx="11.495" ry="3.15"/>
</g>
<g id="Layer_6">
	<circle fill="#1CB902" cx="58.882" cy="16.117" r="6.457"/>
	<circle fill="#1C7F00" cx="59.007" cy="16.117" r="5.521"/>
	<circle fill="#1CB902" cx="53.126" cy="5.736" r="4.403"/>
	<circle fill="#1C7F00" cx="53.211" cy="5.736" r="3.765"/>
	<circle fill="#1CB902" cx="64.372" cy="6.998" r="2.902"/>
	<circle fill="#1C7F00" cx="64.428" cy="6.998" r="2.481"/>
</g>
<g id="Layer_7">
	<text transform="matrix(1 0 0 1 51.6572 7.7773)" fill="#FFFFFF" font-family="'MyriadPro-Regular'" font-size="6.1257">$</text>
	<text transform="matrix(1 0 0 1 63.6167 8.3623)" fill="#FFFFFF" font-family="'MyriadPro-Regular'" font-size="3.6026">$</text>
	<text transform="matrix(1 0 0 1 56.7915 18.5342)" fill="#FFFFFF" font-family="'MyriadPro-Regular'" font-size="8.1701">$</text>
</g>
<g id="Layer_8">
	<text transform="matrix(0.9127 0 0 1 2 35.8018)" fill="#FFFEFE" font-family="'CooperBlack'" font-size="20">Tipr</text>
</g>
</svg>
